HIERARCHY
ROOT Hips
{
	OFFSET 0.000000 0.000000 0.000000
	CHANNELS 6 Xposition Yposition Zposition Zrotation Yrotation Xrotation 
	JOINT LHipJoint
	{
		OFFSET 0.000000 0.000000 0.000000
		CHANNELS 3 Zrotation Yrotation Xrotation
		JOINT LeftUpLeg
		{
			OFFSET 1.363060 -1.794630 0.839290
			CHANNELS 3 Zrotation Yrotation Xrotation
			JOINT LeftLeg
			{
				OFFSET 2.448110 -6.726130 0.000000
				CHANNELS 3 Zrotation Yrotation Xrotation
				JOINT LeftFoot
				{
					OFFSET 2.562200 -7.039590 0.000000
					CHANNELS 3 Zrotation Yrotation Xrotation
					JOINT LeftToeBase
					{
						OFFSET 0.157640 -0.433110 2.322550
						CHANNELS 3 Zrotation Yrotation Xrotation
						End Site
						{
							OFFSET 0.000000 0.000000 0.000000
						}
					}
				}
			}
		}
	}
	JOINT RHipJoint
	{
		OFFSET 0.000000 0.000000 0.000000
		CHANNELS 3 Zrotation Yrotation Xrotation
		JOINT RightUpLeg
		{
			OFFSET -1.305520 -1.794630 0.839290
			CHANNELS 3 Zrotation Yrotation Xrotation
			JOINT RightLeg
			{
				OFFSET -2.542530 -6.985550 0.000000
				CHANNELS 3 Zrotation Yrotation Xrotation
				JOINT RightFoot
				{
					OFFSET -2.568260 -7.056230 0.000000
					CHANNELS 3 Zrotation Yrotation Xrotation
					JOINT RightToeBase
					{
						OFFSET -0.164730 -0.452590 2.363150
						CHANNELS 3 Zrotation Yrotation Xrotation
						End Site
						{
							OFFSET 0.000000 0.000000 0.000000
						}
					}
				}
			}
		}
	}
	JOINT LowerBack
	{
		OFFSET 0.000000 0.000000 0.000000
		CHANNELS 3 Zrotation Yrotation Xrotation
		JOINT Spine
		{
			OFFSET 0.028270 2.035590 -0.193380
			CHANNELS 3 Zrotation Yrotation Xrotation
			JOINT Spine1
			{
				OFFSET 0.056720 2.048850 -0.042750
				CHANNELS 3 Zrotation Yrotation Xrotation
				JOINT Neck
				{
					OFFSET 0.000000 0.000000 0.000000
					CHANNELS 3 Zrotation Yrotation Xrotation
					JOINT Neck1
					{
						OFFSET -0.054170 1.746240 0.172020
						CHANNELS 3 Zrotation Yrotation Xrotation
						JOINT Head
						{
							OFFSET 0.104070 1.761360 -0.123970
							CHANNELS 3 Zrotation Yrotation Xrotation
							End Site
							{
								OFFSET 0.000000 0.000000 0.000000
							}
						}
					}
				}
				JOINT LeftShoulder
				{
					OFFSET 0.000000 0.000000 0.000000
					CHANNELS 3 Zrotation Yrotation Xrotation
					JOINT LeftArm
					{
						OFFSET 3.362410 1.200890 -0.311210
						CHANNELS 3 Zrotation Yrotation Xrotation
						JOINT LeftForeArm
						{
							OFFSET 4.983000 -0.000000 -0.000000
							CHANNELS 3 Zrotation Yrotation Xrotation
							JOINT LeftHand
							{
								OFFSET 3.483560 -0.000000 -0.000000
								CHANNELS 3 Zrotation Yrotation Xrotation
								JOINT LeftFingerBase
								{
									OFFSET 0.000000 0.000000 0.000000
									CHANNELS 3 Zrotation Yrotation Xrotation
									JOINT LeftHandIndex1
									{
										OFFSET 0.715260 -0.000000 -0.000000
										CHANNELS 3 Zrotation Yrotation Xrotation
										End Site
										{
											OFFSET 0.000000 0.000000 0.000000
										}
									}
								}
								JOINT LThumb
								{
									OFFSET 0.000000 0.000000 0.000000
									CHANNELS 3 Zrotation Yrotation Xrotation
									End Site
									{
										OFFSET 0.000000 0.000000 0.000000
									}
								}
							}
						}
					}
				}
				JOINT RightShoulder
				{
					OFFSET 0.000000 0.000000 0.000000
					CHANNELS 3 Zrotation Yrotation Xrotation
					JOINT RightArm
					{
						OFFSET -3.136600 1.374050 -0.404650
						CHANNELS 3 Zrotation Yrotation Xrotation
						JOINT RightForeArm
						{
							OFFSET -5.241900 -0.000000 -0.000000
							CHANNELS 3 Zrotation Yrotation Xrotation
							JOINT RightHand
							{
								OFFSET -3.444170 -0.000000 -0.000000
								CHANNELS 3 Zrotation Yrotation Xrotation
								JOINT RightFingerBase
								{
									OFFSET 0.000000 0.000000 0.000000
									CHANNELS 3 Zrotation Yrotation Xrotation
									JOINT RightHandIndex1
									{
										OFFSET -0.622530 -0.000000 -0.000000
										CHANNELS 3 Zrotation Yrotation Xrotation
										End Site
										{
											OFFSET 0.000000 0.000000 0.000000
										}
									}
								}
								JOINT RThumb
								{
									OFFSET 0.000000 0.000000 0.000000
									CHANNELS 3 Zrotation Yrotation Xrotation
									End Site
									{
										OFFSET 0.000000 0.000000 0.000000
									}
								}
							}
						}
					}
				}
			}
		}
	}
}
MOTION
Frames: 7
Frame Time: 0.008333
-1.378471 15.546246 24.677477 -142.843163 74.047952 -127.247138 2.539701 11.253877 -3.167667 -30.892005 -7.547831 -12.297988 -7.720422 0.822152 42.477443 4.836421 2.104557 -22.733640 -118.206488 20.555980 172.934071 27.764153 -11.896570 7.809088 -19.695268 4.969655 -66.529695 -10.305452 -4.626004 51.243661 9.587356 -0.557363 8.638978 9.008672 5.240031 -20.025850 -19.524829 1.608788 2.253154 13.757187 -0.789258 -7.330256 8.325017 -4.780000 11.438791 -0.964348 4.242278 -19.152852 2.592486 4.293127 16.319658 -15.359426 17.227285 6.331586 8.561377 -3.969301 0.845211 -93.291511 -42.318838 44.374960 24.666474 -61.065430 23.134711 7.585951 -31.665976 2.265687 0.000002 -0.000001 0.000002 -0.000000 0.000000 0.000000 0.000000 0.000000 0.000000 0.387333 -5.105284 2.041830 65.849584 6.418780 3.518989 23.396710 57.225373 47.387275 -17.167111 16.267077 -0.424500 -0.000005 0.000004 -0.000002 0.000000 -0.000000 -0.000000 -0.000000 0.000000 -0.000000 
-1.105941 15.621471 24.659910 -144.149049 73.571795 -128.298707 2.210706 10.600859 -2.528064 -29.472657 -6.613135 -13.419577 -7.069304 2.212357 42.617573 4.759511 0.020598 -18.815008 150.974322 -9.323075 138.411557 27.294469 -13.412927 7.810175 -17.862756 6.626180 -66.675156 -9.416761 -2.984443 45.962168 10.542711 2.076285 9.557319 9.207982 4.141908 -19.305111 -20.062494 1.673826 2.034522 14.165843 -0.809402 -7.551584 9.048134 -5.084509 11.101906 -1.232748 4.293832 -19.082621 2.610430 4.389308 16.486188 -14.779513 17.449846 6.400720 8.323674 -4.380186 0.729992 -93.335206 -42.602644 45.680558 26.552907 -61.281729 21.922142 6.641934 -31.885179 2.567745 0.000002 -0.000001 0.000002 0.000000 -0.000000 -0.000000 0.000000 0.000000 -0.000000 0.203682 -5.342151 2.041784 65.749561 5.275409 3.699479 23.014126 58.143618 48.015411 -17.483404 16.520152 -0.480042 -0.000005 0.000004 -0.000002 0.000000 0.000000 0.000000 -0.000000 -0.000000 -0.000000 
-0.829204 15.691742 24.638889 -145.410410 73.160508 -129.525049 1.762728 10.498727 -2.303179 -27.955707 -5.499068 -14.541536 -7.041713 3.241413 44.216093 3.345898 -1.417396 -12.042278 79.949676 -41.466672 116.488334 26.325553 -15.844525 8.214975 -15.823248 9.284097 -66.990403 -8.027621 -1.301181 41.575104 11.894932 5.975626 8.463149 8.180327 5.231076 -18.593861 -20.349697 1.833124 2.088766 14.157000 -0.823122 -7.805969 9.415352 -5.261456 11.041305 -1.261288 4.244803 -19.316944 2.788589 4.357629 16.535923 -14.533761 17.578891 6.434311 8.480404 -4.528130 0.641517 -93.009814 -43.116321 46.831550 28.359345 -61.731283 21.149116 7.119742 -32.298704 2.456507 0.000002 -0.000001 0.000002 0.000000 0.000000 -0.000000 0.000000 0.000000 -0.000000 0.232122 -5.675449 1.885651 65.978363 4.488108 3.895327 22.419280 59.039714 48.505654 -18.450836 16.596144 -0.632751 -0.000005 0.000004 -0.000002 -0.000000 0.000000 0.000000 -0.000000 0.000000 0.000000 
-0.538332 15.737237 24.617718 -146.557948 72.553883 -130.465612 1.671629 10.971108 -2.444364 -26.855525 -5.113010 -15.057932 -7.649895 3.526970 46.037134 2.202744 -1.172551 -5.235646 92.469311 -35.519020 117.749097 24.578766 -18.309747 9.299731 -13.443382 12.354648 -67.306576 -6.617643 0.527094 36.413475 12.314750 9.441485 8.210203 8.932181 3.630298 -18.393828 -20.130626 1.943655 1.617640 13.523192 -0.957885 -7.777831 9.492875 -5.353909 11.217533 -0.928533 4.187955 -19.631145 3.124554 4.231960 16.415903 -14.548948 17.871925 7.174780 9.449885 -4.690985 0.437367 -92.821852 -43.695585 47.733917 29.888484 -62.352022 20.571018 6.813800 -32.828720 2.599576 0.000002 -0.000001 0.000002 -0.000000 -0.000000 0.000000 0.000000 0.000000 0.000000 0.548427 -6.285025 1.772472 66.459589 3.889140 3.935457 22.190170 59.829516 48.555795 -18.582964 16.491587 -0.652954 -0.000005 0.000004 -0.000002 -0.000000 0.000000 -0.000000 -0.000000 0.000000 0.000000 
-0.243968 15.771622 24.600450 -148.181769 71.846596 -131.504010 1.755841 11.206249 -2.770655 -26.065188 -4.785987 -15.719153 -7.607419 4.329807 47.450036 0.888360 -1.208742 2.133536 91.916747 -35.052521 117.297320 22.803783 -19.793934 10.818364 -12.206927 14.670529 -67.519597 -5.001136 1.819539 30.117414 13.559797 11.619618 9.367924 10.164097 2.982053 -19.835885 -19.882268 1.789560 0.759667 12.706616 -1.254830 -7.614543 10.460151 -5.907813 11.288373 -1.410000 4.018051 -19.883235 3.431246 4.166655 16.205757 -14.451048 17.694537 7.120710 9.664313 -4.396793 0.392188 -92.713400 -44.372694 48.688116 31.618673 -62.972340 19.206614 6.141651 -32.427696 2.768982 0.000002 -0.000001 0.000002 0.000000 0.000000 0.000000 -0.000000 0.000000 0.000000 -0.208944 -6.494915 1.557466 67.121051 3.144930 4.197877 21.686636 60.668527 48.853124 -19.170388 16.370503 -0.741455 -0.000005 0.000004 -0.000002 0.000000 0.000000 0.000000 0.000000 -0.000000 0.000000 
0.039769 15.801201 24.581682 -149.900016 71.320096 -132.721474 1.900542 10.917194 -2.785334 -25.526383 -4.024083 -16.638389 -6.458988 5.807044 48.039452 -0.685572 -2.184691 9.271820 89.359754 -34.916136 116.808166 21.673556 -20.374577 11.539996 -11.265479 15.662326 -67.437009 -3.792913 2.160516 24.883804 17.401522 13.409213 12.320828 12.003369 4.062376 -23.719435 -19.813018 1.747671 0.223289 12.063116 -1.458955 -7.587707 10.930605 -6.258731 11.152706 -1.582573 3.915133 -20.016697 3.749044 4.096012 16.016323 -14.296339 17.716928 7.446948 10.084347 -4.263615 0.257313 -92.470419 -44.859406 49.464742 33.280582 -63.494762 17.884337 5.079130 -31.952456 3.048462 0.000002 -0.000001 0.000002 -0.000000 0.000000 -0.000000 0.000000 0.000000 0.000000 -0.635914 -6.664279 1.369019 67.714300 2.368575 4.363928 21.266480 61.443537 48.942541 -20.031997 15.953374 -0.865113 -0.000005 0.000004 -0.000002 0.000000 0.000000 0.000000 0.000000 -0.000000 0.000000 
0.325976 15.822222 24.562162 -151.366350 71.393511 -134.147685 1.878733 10.940191 -2.364813 -25.186586 -3.337318 -17.128551 -5.842567 6.574792 48.140661 -1.856364 -2.624609 14.388653 91.106019 -32.168056 114.970187 22.591234 -20.919629 11.538619 -11.963398 15.204759 -69.314069 -1.966194 1.461976 24.849646 21.111140 16.210189 15.156197 14.346236 2.428099 -25.901177 -20.240537 1.978330 0.088876 11.753389 -1.352913 -7.619853 10.606055 -6.048196 10.891524 -1.204649 3.895240 -19.980672 4.085347 3.986614 15.879206 -13.916904 17.865021 7.846695 10.791251 -4.500966 0.073187 -92.029977 -45.145952 50.057124 34.618846 -63.843612 17.507580 4.290586 -32.489304 3.341825 0.000002 -0.000001 0.000002 0.000000 0.000000 0.000000 -0.000000 -0.000000 0.000000 -0.380818 -6.922075 1.338091 68.088242 1.722106 4.222881 21.208353 62.056520 48.868633 -19.184098 16.148932 -0.737366 -0.000005 0.000004 -0.000002 0.000000 -0.000000 0.000000 0.000000 0.000000 0.000000 
